HIERARCHY
ROOT newVegas:Hips
{
	OFFSET 0.000000 96.479958 0.000000
	CHANNELS 6 Xposition Yposition Zposition Xrotation Yrotation Zrotation
	JOINT newVegas:Pelvis
	{
		OFFSET 0.000000 0.000000 0.000000
		CHANNELS 3 Xrotation Yrotation Zrotation
		JOINT newVegas:LeftUpLeg
		{
			OFFSET 18.735201 -5.666702 -4.541200
			CHANNELS 3 Xrotation Yrotation Zrotation
			JOINT newVegas:LeftLeg
			{
				OFFSET -0.021200 -31.938179 0.493100
				CHANNELS 3 Xrotation Yrotation Zrotation
				JOINT newVegas:LeftFoot
				{
					OFFSET 0.021200 -31.938179 -4.336299
					CHANNELS 3 Xrotation Yrotation Zrotation
					JOINT newVegas:LeftToeBase
					{
						OFFSET 0.943001 -26.722000 15.023500
						CHANNELS 3 Xrotation Yrotation Zrotation
						End Site
						{
							OFFSET 0.000000 30.670183 0.000000
						}
					}
				}
				JOINT newVegas:Left_PantLeg
				{
					OFFSET 0.663870 -9.044666 -1.108900
					CHANNELS 3 Xrotation Yrotation Zrotation
					End Site
					{
						OFFSET 1.415995 20.635357 0.000000
					}
				}
			}
		}
		JOINT newVegas:RightUpLeg
		{
			OFFSET -18.735201 -5.666702 -4.541200
			CHANNELS 3 Xrotation Yrotation Zrotation
			JOINT newVegas:RightLeg
			{
				OFFSET 0.018946 -31.938133 0.493100
				CHANNELS 3 Xrotation Yrotation Zrotation
				JOINT newVegas:RightFoot
				{
					OFFSET -0.018946 -31.938126 -4.336299
					CHANNELS 3 Xrotation Yrotation Zrotation
					JOINT newVegas:RightToeBase
					{
						OFFSET -0.943001 -26.722004 15.023500
						CHANNELS 3 Xrotation Yrotation Zrotation
						End Site
						{
							OFFSET 0.000000 30.670187 0.000000
						}
					}
				}
				JOINT newVegas:Right_PantLeg
				{
					OFFSET -0.661674 -9.044716 -1.108900
					CHANNELS 3 Xrotation Yrotation Zrotation
					End Site
					{
						OFFSET -1.415958 20.635269 0.000000
					}
				}
			}
		}
	}
	JOINT newVegas:Spine
	{
		OFFSET 0.000000 10.199997 -0.299500
		CHANNELS 3 Xrotation Yrotation Zrotation
		JOINT newVegas:Spine1
		{
			OFFSET 0.000000 11.900002 -1.516600
			CHANNELS 3 Xrotation Yrotation Zrotation
			JOINT newVegas:Spine2
			{
				OFFSET 0.000000 13.600006 -2.842500
				CHANNELS 3 Xrotation Yrotation Zrotation
				JOINT newVegas:Neck
				{
					OFFSET 0.000000 9.624100 -2.890100
					CHANNELS 3 Xrotation Yrotation Zrotation
					JOINT newVegas:Head
					{
						OFFSET 0.000000 14.068802 -1.351900
						CHANNELS 3 Xrotation Yrotation Zrotation
						JOINT newVegas:Hair_Back
						{
							OFFSET 0.000000 3.231903 -17.524799
							CHANNELS 3 Xrotation Yrotation Zrotation
							End Site
							{
								OFFSET 0.000000 19.849884 0.000000
							}
						}
						JOINT newVegas:Hair_Front
						{
							OFFSET 0.000000 31.260406 4.573800
							CHANNELS 3 Xrotation Yrotation Zrotation
							JOINT newVegas:Hair_Front1
							{
								OFFSET 0.000000 2.284103 11.993300
								CHANNELS 3 Xrotation Yrotation Zrotation
								JOINT newVegas:Hair_Front2
								{
									OFFSET 0.000000 2.284103 11.993300
									CHANNELS 3 Xrotation Yrotation Zrotation
									End Site
									{
										OFFSET 0.000000 12.208862 0.000000
									}
								}
							}
						}
						JOINT newVegas:Jowel
						{
							OFFSET 0.000000 -7.458206 6.864100
							CHANNELS 3 Xrotation Yrotation Zrotation
							End Site
							{
								OFFSET 0.000000 19.849884 0.000000
							}
						}
					}
				}
				JOINT newVegas:LeftShoulder
				{
					OFFSET 15.263000 10.923401 -0.547700
					CHANNELS 3 Xrotation Yrotation Zrotation
					JOINT newVegas:LeftArm
					{
						OFFSET 25.438599 -2.830597 -13.032500
						CHANNELS 3 Xrotation Yrotation Zrotation
						JOINT newVegas:LeftForeArm
						{
							OFFSET 29.960503 0.000000 0.000000
							CHANNELS 3 Xrotation Yrotation Zrotation
							JOINT newVegas:LeftHand
							{
								OFFSET 27.849251 0.000000 0.000000
								CHANNELS 3 Xrotation Yrotation Zrotation
								JOINT newVegas:LeftHandThumb1
								{
									OFFSET 4.487587 -3.305161 6.305391
									CHANNELS 3 Xrotation Yrotation Zrotation
									JOINT newVegas:LeftHandThumb2
									{
										OFFSET 5.480453 -3.164139 3.164143
										CHANNELS 3 Xrotation Yrotation Zrotation
										JOINT newVegas:LeftHandThumb3
										{
											OFFSET 5.159721 -2.978973 2.978967
											CHANNELS 3 Xrotation Yrotation Zrotation
											End Site
											{
												OFFSET 2.494507 5.926697 1.738678
											}
										}
									}
								}
								JOINT newVegas:LeftHandIndex1
								{
									OFFSET 18.578728 -0.527832 5.208049
									CHANNELS 3 Xrotation Yrotation Zrotation
									JOINT newVegas:LeftHandIndex2
									{
										OFFSET 3.192009 0.000000 0.000000
										CHANNELS 3 Xrotation Yrotation Zrotation
										JOINT newVegas:LeftHandIndex3
										{
											OFFSET 3.835129 0.000000 0.000000
											CHANNELS 3 Xrotation Yrotation Zrotation
											End Site
											{
												OFFSET -0.034599 3.816971 0.371180
											}
										}
									}
								}
								JOINT newVegas:LeftHandMiddle1
								{
									OFFSET 18.476105 0.000000 0.000000
									CHANNELS 3 Xrotation Yrotation Zrotation
									JOINT newVegas:LeftHandMiddle2
									{
										OFFSET 3.324875 0.000000 0.000000
										CHANNELS 3 Xrotation Yrotation Zrotation
										JOINT newVegas:LeftHandMiddle3
										{
											OFFSET 4.596550 0.000000 0.000000
											CHANNELS 3 Xrotation Yrotation Zrotation
											End Site
											{
												OFFSET 0.057701 4.578827 0.399218
											}
										}
									}
								}
								JOINT newVegas:LeftHandRing1
								{
									OFFSET 17.732719 0.121887 -4.201567
									CHANNELS 3 Xrotation Yrotation Zrotation
									JOINT newVegas:LeftHandRing2
									{
										OFFSET 2.733170 0.000000 0.000000
										CHANNELS 3 Xrotation Yrotation Zrotation
										JOINT newVegas:LeftHandRing3
										{
											OFFSET 3.178268 0.000000 0.000000
											CHANNELS 3 Xrotation Yrotation Zrotation
											End Site
											{
												OFFSET 0.119102 3.170624 0.185394
											}
										}
									}
								}
								JOINT newVegas:LeftHandPinky1
								{
									OFFSET 15.989624 -0.606689 -7.535461
									CHANNELS 3 Xrotation Yrotation Zrotation
									JOINT newVegas:LeftHandPinky2
									{
										OFFSET 2.538986 0.000000 0.000000
										CHANNELS 3 Xrotation Yrotation Zrotation
										JOINT newVegas:LeftHandPinky3
										{
											OFFSET 2.593102 0.000000 0.000000
											CHANNELS 3 Xrotation Yrotation Zrotation
											End Site
											{
												OFFSET -0.150902 2.584198 0.152708
											}
										}
									}
								}
							}
							JOINT newVegas:Left_Sleeve
							{
								OFFSET 0.267448 -0.649796 0.577675
								CHANNELS 3 Xrotation Yrotation Zrotation
								End Site
								{
									OFFSET 0.000000 15.991241 0.000000
								}
							}
							JOINT newVegas:Left_CapeC
							{
								OFFSET 15.715958 -8.608795 -6.935905
								CHANNELS 3 Xrotation Yrotation Zrotation
								JOINT newVegas:Left_CapeC1
								{
									OFFSET 0.000000 -8.688499 0.000000
									CHANNELS 3 Xrotation Yrotation Zrotation
									End Site
									{
										OFFSET 0.000000 8.688499 0.000000
									}
								}
							}
						}
						JOINT newVegas:Left_CapeB
						{
							OFFSET 26.118385 -8.608795 -7.079235
							CHANNELS 3 Xrotation Yrotation Zrotation
							JOINT newVegas:Left_CapeB1
							{
								OFFSET 0.000000 -8.688499 0.000000
								CHANNELS 3 Xrotation Yrotation Zrotation
								End Site
								{
									OFFSET 0.000000 8.688499 0.000000
								}
							}
						}
						JOINT newVegas:Left_CapeA
						{
							OFFSET 5.115639 -8.608795 -10.395809
							CHANNELS 3 Xrotation Yrotation Zrotation
							JOINT newVegas:Left_CapeA1
							{
								OFFSET 0.000000 -8.688499 0.000000
								CHANNELS 3 Xrotation Yrotation Zrotation
								End Site
								{
									OFFSET 0.000000 8.688499 0.000000
								}
							}
						}
					}
				}
				JOINT newVegas:RightShoulder
				{
					OFFSET -15.263000 10.923401 -0.547700
					CHANNELS 3 Xrotation Yrotation Zrotation
					JOINT newVegas:RightArm
					{
						OFFSET -25.438599 -2.830597 -13.032500
						CHANNELS 3 Xrotation Yrotation Zrotation
						JOINT newVegas:RightForeArm
						{
							OFFSET -29.960503 0.000000 0.000000
							CHANNELS 3 Xrotation Yrotation Zrotation
							JOINT newVegas:RightHand
							{
								OFFSET -27.849251 0.000000 0.000000
								CHANNELS 3 Xrotation Yrotation Zrotation
								JOINT newVegas:RightHandThumb1
								{
									OFFSET -4.487587 -3.305161 6.305391
									CHANNELS 3 Xrotation Yrotation Zrotation
									JOINT newVegas:RightHandThumb2
									{
										OFFSET -5.480453 -3.164139 3.164143
										CHANNELS 3 Xrotation Yrotation Zrotation
										JOINT newVegas:RightHandThumb3
										{
											OFFSET -5.159721 -2.978973 2.978967
											CHANNELS 3 Xrotation Yrotation Zrotation
											End Site
											{
												OFFSET -2.494507 5.926697 1.738678
											}
										}
									}
								}
								JOINT newVegas:RightHandIndex1
								{
									OFFSET -18.578728 -0.527832 5.208049
									CHANNELS 3 Xrotation Yrotation Zrotation
									JOINT newVegas:RightHandIndex2
									{
										OFFSET -3.192009 0.000000 0.000000
										CHANNELS 3 Xrotation Yrotation Zrotation
										JOINT newVegas:RightHandIndex3
										{
											OFFSET -3.835129 0.000000 0.000000
											CHANNELS 3 Xrotation Yrotation Zrotation
											End Site
											{
												OFFSET 0.034599 3.816971 0.371180
											}
										}
									}
								}
								JOINT newVegas:RightHandMiddle1
								{
									OFFSET -18.476105 0.000000 0.000000
									CHANNELS 3 Xrotation Yrotation Zrotation
									JOINT newVegas:RightHandMiddle2
									{
										OFFSET -3.324875 0.000000 0.000000
										CHANNELS 3 Xrotation Yrotation Zrotation
										JOINT newVegas:RightHandMiddle3
										{
											OFFSET -4.596550 0.000000 0.000000
											CHANNELS 3 Xrotation Yrotation Zrotation
											End Site
											{
												OFFSET -0.057701 4.578827 0.399218
											}
										}
									}
								}
								JOINT newVegas:RightHandRing1
								{
									OFFSET -17.732719 0.121887 -4.201567
									CHANNELS 3 Xrotation Yrotation Zrotation
									JOINT newVegas:RightHandRing2
									{
										OFFSET -2.733170 0.000000 0.000000
										CHANNELS 3 Xrotation Yrotation Zrotation
										JOINT newVegas:RightHandRing3
										{
											OFFSET -3.178268 0.000000 0.000000
											CHANNELS 3 Xrotation Yrotation Zrotation
											End Site
											{
												OFFSET -0.119102 3.170624 0.185394
											}
										}
									}
								}
								JOINT newVegas:RightHandPinky1
								{
									OFFSET -15.989624 -0.606689 -7.535461
									CHANNELS 3 Xrotation Yrotation Zrotation
									JOINT newVegas:RightHandPinky2
									{
										OFFSET -2.538986 0.000000 0.000000
										CHANNELS 3 Xrotation Yrotation Zrotation
										JOINT newVegas:RightHandPinky3
										{
											OFFSET -2.593102 0.000000 0.000000
											CHANNELS 3 Xrotation Yrotation Zrotation
											End Site
											{
												OFFSET 0.150902 2.584198 0.152708
											}
										}
									}
								}
							}
							JOINT newVegas:Right_CapeC
							{
								OFFSET -15.715958 -8.608795 -6.935905
								CHANNELS 3 Xrotation Yrotation Zrotation
								JOINT newVegas:Right_CapeC1
								{
									OFFSET 0.000000 -8.688499 0.000000
									CHANNELS 3 Xrotation Yrotation Zrotation
									End Site
									{
										OFFSET 0.000000 8.688499 0.000000
									}
								}
							}
							JOINT newVegas:Right_Sleeve
							{
								OFFSET -0.267448 -0.649994 0.577675
								CHANNELS 3 Xrotation Yrotation Zrotation
								End Site
								{
									OFFSET 0.000000 15.991302 0.000000
								}
							}
						}
						JOINT newVegas:Right_CapeA
						{
							OFFSET -5.115540 -8.608795 -10.395824
							CHANNELS 3 Xrotation Yrotation Zrotation
							JOINT newVegas:Right_CapeA1
							{
								OFFSET 0.000000 -8.688499 0.000000
								CHANNELS 3 Xrotation Yrotation Zrotation
								End Site
								{
									OFFSET 0.000000 8.688499 0.000000
								}
							}
						}
						JOINT newVegas:Right_CapeB
						{
							OFFSET -26.118187 -8.608795 -7.079266
							CHANNELS 3 Xrotation Yrotation Zrotation
							JOINT newVegas:Right_CapeB1
							{
								OFFSET 0.000000 -8.688499 0.000000
								CHANNELS 3 Xrotation Yrotation Zrotation
								End Site
								{
									OFFSET 0.000000 8.688499 0.000000
								}
							}
						}
					}
				}
				JOINT newVegas:Left_Collar
				{
					OFFSET 18.625099 8.655502 8.828100
					CHANNELS 3 Xrotation Yrotation Zrotation
					JOINT newVegas:Left_Collar1
					{
						OFFSET 14.783401 10.540405 -1.259500
						CHANNELS 3 Xrotation Yrotation Zrotation
						End Site
						{
							OFFSET 0.000000 18.199875 0.000000
						}
					}
				}
				JOINT newVegas:Collar_Back
				{
					OFFSET 0.000000 15.630707 -20.132601
					CHANNELS 3 Xrotation Yrotation Zrotation
					End Site
					{
						OFFSET 0.000000 22.523010 0.000000
					}
				}
				JOINT newVegas:Left_Peck
				{
					OFFSET 17.239599 -5.132599 25.482599
					CHANNELS 3 Xrotation Yrotation Zrotation
					End Site
					{
						OFFSET 0.000000 22.523010 0.000000
					}
				}
				JOINT newVegas:Right_Peck
				{
					OFFSET -17.239599 -5.132202 25.482599
					CHANNELS 3 Xrotation Yrotation Zrotation
					End Site
					{
						OFFSET 0.000000 22.523010 0.000000
					}
				}
				JOINT newVegas:Right_Collar
				{
					OFFSET -18.625099 8.655792 8.828100
					CHANNELS 3 Xrotation Yrotation Zrotation
					JOINT newVegas:Right_Collar1
					{
						OFFSET -14.783401 10.539993 -1.259500
						CHANNELS 3 Xrotation Yrotation Zrotation
						End Site
						{
							OFFSET 0.000000 18.199631 0.000000
						}
					}
				}
			}
		}
		JOINT newVegas:Belly
		{
			OFFSET 0.000000 -6.540398 9.014299
			CHANNELS 3 Xrotation Yrotation Zrotation
			End Site
			{
				OFFSET 0.000000 11.566666 0.000000
			}
		}
	}
	JOINT newVegas:ElvisFacialAnim_Joint
	{
		OFFSET 1.000000 -95.330101 -8.825800
		CHANNELS 3 Xrotation Yrotation Zrotation
		End Site
		{
			OFFSET 0.000000 35.315800 0.000000
		}
	}
}
MOTION
Frames: 4
Frame Time: 0.033333
-0.415577 69.447052 2.758738 16.506199 7.303053 4.742521 0.000001 0.000000 -0.000000 18.623937 9.215790 -7.607915 35.560086 14.475203 -7.891449 -27.329496 13.528853 -17.907402 0.000002 0.000000 -0.000000 0.000003 -0.000001 -0.000000 -93.974578 -0.240775 1.047768 50.157720 -8.617834 1.347584 18.919011 -29.382603 -14.239572 0.000000 0.000001 -0.000000 0.000001 0.000001 -0.000002 10.953226 -14.139089 9.132707 2.869495 -4.087943 0.126403 2.861640 -4.312289 0.311447 -0.302690 0.895527 -1.785508 -0.302692 0.895529 -1.785513 0.000001 0.000000 -0.000000 -0.302697 0.895518 -1.785511 -0.302619 0.895525 -1.785510 -0.000002 0.000000 0.000000 0.000001 0.000000 -0.000000 2.870357 -11.957098 6.152317 -33.803709 -70.877556 -6.927846 0.000024 -94.709555 0.000035 15.904408 -20.838175 11.426090 -14.373997 -24.771143 -3.357596 9.920177 43.708891 4.996014 0.000001 -0.000000 -0.000003 0.614965 5.226350 -14.494949 0.212944 1.566686 -15.479599 -0.000002 0.000001 0.000001 1.835611 6.790024 -33.465229 1.023788 3.310321 -34.362456 -0.000004 -0.000000 0.000000 2.757899 7.484221 -44.479841 1.527763 3.946324 -42.313210 -0.000001 0.000001 0.000001 3.725322 7.962797 -54.775153 2.215598 4.587641 -51.537985 0.000001 -0.000003 0.000002 -0.000001 -0.000000 -0.000000 -0.000001 -0.000000 -0.000000 -0.000001 -0.000000 0.000000 0.000000 0.000000 -0.000001 0.000000 -0.000002 0.000000 0.000000 0.000000 -0.000001 0.000000 0.000000 -0.000001 1.124701 1.331172 15.116525 -9.590817 -31.513205 40.008403 -0.000010 10.721315 -0.000006 16.783641 19.030288 -20.612609 -6.394888 8.753149 -2.624450 8.233897 -29.439085 -1.700703 -0.000000 -0.000002 -0.000001 -1.791201 6.483420 11.714607 0.189238 -1.315433 16.372436 0.000001 -0.000001 0.000001 -1.298706 1.214685 17.888084 0.309493 -1.671018 20.984576 0.000001 -0.000001 -0.000002 -0.118573 -2.982252 25.427679 0.400606 -1.891415 23.914992 0.000001 0.000001 -0.000000 0.003146 -3.566947 32.442118 0.622460 -2.327931 29.936128 0.000002 0.000002 -0.000000 0.000001 0.000002 -0.000000 0.000001 0.000002 0.000002 0.000001 0.000001 -0.000000 -0.000000 -0.000003 -0.000000 -0.000000 -0.000002 -0.000001 -0.000000 -0.000003 -0.000000 -0.000000 -0.000002 -0.000001 -0.000001 -0.000001 0.000001 -0.000001 -0.000001 0.000001 -0.000001 -0.000001 0.000001 -0.000001 -0.000001 0.000001 -0.000001 -0.000001 0.000001 -0.000001 -0.000001 0.000001 -0.000001 -0.000001 0.000001 -0.000002 0.000000 -0.000001 0.000001 0.000000 -0.000000 
0.234692 68.584038 6.075459 24.836637 7.698113 -3.808325 -0.000001 -0.000000 0.000000 15.991614 7.592671 -1.273317 27.431404 12.879345 -7.064551 -28.576846 16.499164 -19.315845 -0.000000 -0.000002 -0.000002 -0.000001 -0.000000 -0.000003 -100.356058 -2.455990 2.963938 54.672717 -12.629587 1.563532 14.609414 -29.988676 -10.401330 0.000000 0.000001 0.000000 0.000000 -0.000000 -0.000001 6.981729 -8.206503 8.178930 4.555970 -4.385184 4.447290 4.539168 -4.516913 4.521526 -0.965193 0.339443 -1.824959 -0.965209 0.339447 -1.824959 -0.000001 0.000001 0.000000 -0.965205 0.339444 -1.824957 -0.965131 0.339427 -1.824955 -0.000001 -0.000000 -0.000000 -0.000001 0.000001 0.000000 2.331352 -11.296689 3.355347 -28.574856 -62.643763 -4.395870 0.000187 -88.006386 0.000346 7.483282 -18.318183 9.616745 -13.627180 -23.220555 -2.515407 9.932085 43.800579 5.004007 -0.000001 0.000000 -0.000001 0.706982 5.389913 -16.282981 0.379920 2.077177 -20.727809 0.000001 -0.000001 0.000003 1.980915 6.918734 -35.317617 1.200768 3.554918 -37.317695 -0.000001 0.000001 0.000002 2.928516 7.584682 -46.369389 1.738800 4.165805 -45.296110 -0.000001 0.000001 -0.000000 3.890340 8.069112 -56.696277 2.461567 4.772068 -54.551956 -0.000000 -0.000002 0.000001 -0.000002 -0.000000 -0.000000 -0.000002 -0.000000 -0.000000 -0.000003 -0.000000 -0.000000 0.000000 0.000000 0.000000 0.000000 0.000000 0.000002 0.000000 0.000000 0.000000 0.000000 -0.000000 0.000000 1.107306 1.448059 18.158603 -13.267937 -29.628138 36.541925 0.000002 13.496888 0.000004 4.175606 12.313596 -18.738907 -7.100156 10.576173 -2.155396 8.394526 -31.048227 -2.080421 0.000001 0.000000 0.000003 -1.617126 5.401586 11.925815 0.188281 -1.312163 16.330540 -0.000001 0.000000 -0.000001 -1.182040 0.463537 19.356010 0.350268 -1.773630 22.341207 -0.000001 -0.000000 -0.000001 0.032623 -3.381898 27.259486 0.463916 -2.028086 25.766011 0.000000 0.000001 -0.000001 0.211812 -3.970848 34.605614 0.713759 -2.479603 32.112712 -0.000000 0.000002 0.000000 -0.000000 -0.000002 -0.000002 -0.000002 -0.000001 0.000001 -0.000000 -0.000002 -0.000001 -0.000001 -0.000002 0.000002 -0.000001 -0.000001 0.000002 -0.000001 -0.000002 0.000002 -0.000001 -0.000001 0.000003 0.000003 -0.000000 0.000001 0.000003 -0.000000 0.000001 0.000003 -0.000000 0.000001 0.000003 -0.000000 0.000001 0.000003 -0.000000 0.000001 0.000003 -0.000000 0.000001 0.000003 -0.000000 0.000001 -0.000000 0.000000 0.000000 -0.000001 -0.000000 0.000000 
0.766251 67.961212 8.560570 30.946597 8.999148 -10.650085 -0.000000 -0.000001 0.000001 15.537560 6.521704 4.896341 18.301654 10.982757 -5.991543 -28.106444 17.587664 -20.848869 0.000002 -0.000001 0.000001 -0.000000 -0.000001 0.000000 -105.144239 -3.231505 2.253473 58.582150 -11.631629 2.117797 13.084715 -29.642587 -5.643186 -0.000000 0.000001 0.000000 -0.000001 0.000000 -0.000000 4.318007 -4.100533 7.583579 5.796297 -4.637896 7.560196 5.798131 -4.698952 7.560081 -1.507472 -0.129486 -1.658122 -1.507443 -0.129489 -1.658122 -0.000000 -0.000000 -0.000001 -1.507443 -0.129485 -1.658121 -1.507454 -0.129498 -1.658120 -0.000001 0.000001 -0.000001 -0.000000 -0.000000 -0.000001 1.844892 -10.620935 0.424190 -26.005745 -53.697414 -4.245462 -0.000052 -80.990088 -0.000036 -1.523511 -16.903117 8.590566 -12.872986 -21.557686 -1.652274 9.955535 43.980578 5.019626 -0.000000 -0.000002 -0.000003 0.816417 5.571775 -18.271265 0.617427 2.619749 -26.518863 -0.000001 -0.000002 0.000000 2.153467 7.062313 -37.425479 1.414725 3.818759 -40.644062 -0.000004 0.000001 0.000001 3.131845 7.695830 -48.546338 1.991106 4.400553 -48.673390 0.000000 0.000001 0.000001 4.093268 8.186195 -58.934595 2.753213 4.966101 -57.986954 -0.000000 -0.000007 -0.000003 0.000001 0.000001 -0.000000 0.000001 0.000001 -0.000000 0.000000 0.000001 -0.000000 0.000000 -0.000001 0.000002 0.000000 -0.000001 0.000002 0.000000 -0.000001 0.000002 0.000000 -0.000002 0.000002 1.075863 1.545821 21.345103 -16.961704 -27.250626 33.526697 -0.000003 16.040969 -0.000008 -8.955180 6.115908 -17.776051 -7.893046 12.539468 -1.608250 8.572977 -32.831398 -2.485873 -0.000002 -0.000002 -0.000001 -1.426438 4.257329 12.184357 0.188286 -1.312163 16.330765 0.000002 -0.000005 -0.000003 -1.023000 -0.330015 20.990664 0.399046 -1.887894 23.867889 -0.000003 0.000001 0.000000 0.219263 -3.805437 29.308714 0.539892 -2.178378 27.836071 -0.000000 0.000001 0.000000 0.465048 -4.394784 37.034317 0.822834 -2.645281 34.552103 -0.000003 0.000001 0.000001 0.000000 0.000002 0.000002 -0.000000 0.000001 0.000004 0.000000 0.000001 0.000004 -0.000003 0.000003 0.000002 -0.000003 0.000003 0.000003 -0.000003 0.000003 0.000002 -0.000003 0.000003 0.000003 0.000001 0.000000 -0.000001 0.000001 0.000000 -0.000001 0.000001 0.000000 -0.000001 0.000001 0.000000 -0.000001 0.000001 0.000000 -0.000001 0.000001 0.000000 -0.000001 0.000001 0.000000 -0.000001 -0.000002 0.000000 -0.000000 -0.000000 -0.000001 0.000001 
1.111731 67.772491 9.950890 34.670249 11.219907 -15.372628 0.000002 0.000001 -0.000000 16.366296 6.019613 9.621529 10.209914 10.183290 -5.356041 -27.275643 16.413177 -21.160302 0.000001 -0.000001 -0.000000 -0.000002 -0.000001 0.000003 -107.421793 -3.709771 -0.036152 60.001962 -9.401965 2.740497 12.367821 -25.734239 -2.760006 -0.000000 -0.000003 -0.000000 -0.000001 -0.000001 -0.000001 3.148914 -2.213892 7.366115 6.232210 -4.506112 8.916885 6.250552 -4.528060 8.889520 -1.847606 -0.443982 -1.464630 -1.847593 -0.443983 -1.464629 0.000000 0.000001 -0.000000 -1.847609 -0.443981 -1.464629 -1.847563 -0.443989 -1.464627 0.000001 0.000000 -0.000000 0.000000 0.000001 -0.000000 1.419307 -9.939366 -2.615107 -24.778352 -44.166602 -5.041827 -0.000011 -73.650292 -0.000008 -11.173824 -16.929373 7.896876 -12.134626 -19.831369 -0.795506 9.984667 44.204223 5.038928 -0.000000 -0.000002 -0.000003 0.938897 5.760163 -20.361665 0.923698 3.159228 -32.589011 -0.000002 0.000004 -0.000002 2.343392 7.208781 -39.662809 1.657016 4.083450 -44.159215 -0.000000 -0.000000 0.000001 3.354522 7.806708 -50.868455 2.272928 4.632455 -52.250951 0.000001 0.000005 0.000001 4.319486 8.303293 -61.332913 3.075059 5.152597 -61.635381 0.000003 -0.000007 -0.000002 -0.000001 -0.000000 0.000000 -0.000001 -0.000000 0.000000 -0.000002 0.000000 0.000000 0.000002 0.000003 -0.000001 0.000002 0.000002 -0.000000 0.000002 0.000003 -0.000001 0.000001 0.000002 -0.000000 1.038452 1.618991 24.678884 -20.680290 -24.454842 30.977759 -0.000001 18.429932 0.000004 -21.921808 0.858606 -17.468243 -8.771502 14.610415 -0.981762 8.765940 -34.754625 -2.910267 0.000002 -0.000005 0.000001 -1.216955 3.063969 12.482333 0.189065 -1.314834 16.364768 -0.000002 -0.000002 -0.000003 -0.814287 -1.151906 22.761394 0.455631 -2.010885 25.531403 0.000000 0.000000 0.000000 0.443975 -4.242337 31.534174 0.628416 -2.338233 30.082397 0.000000 -0.000003 -0.000001 0.765043 -4.825906 39.678191 0.949243 -2.819848 37.203112 0.000002 0.000005 -0.000002 0.000003 0.000000 0.000001 0.000003 -0.000001 -0.000003 0.000003 -0.000000 0.000002 0.000001 0.000002 -0.000000 0.000001 0.000003 -0.000000 0.000001 0.000002 -0.000000 0.000001 0.000003 0.000001 -0.000000 0.000001 -0.000001 -0.000000 0.000001 -0.000001 -0.000000 0.000001 -0.000001 -0.000000 0.000001 -0.000001 -0.000000 0.000001 -0.000001 -0.000000 0.000001 -0.000001 -0.000000 0.000001 -0.000001 -0.000001 0.000000 0.000001 0.000002 0.000001 -0.000000 
